<svg xmlns="http://www.w3.org/2000/svg" width="22" height="20" viewBox="0 0 22 20">
    <g fill="none" fill-rule="evenodd">
        <g fill="#FFF" fill-rule="nonzero">
            <g>
                <g>
                    <path d="M20 3.65H0c-.193 0-.35.157-.35.35v14c0 .193.157.35.35.35h20c.193 0 .35-.157.35-.35V4c0-.193-.157-.35-.35-.35zm-.35.7v13.3H.35V4.35h19.3z" transform="translate(-290 -42) translate(236 41) translate(55 2)"/>
                    <path d="M12-.35c1.292 0 2.25.199 2.343.71l.007.084V4c0 .193-.157.35-.35.35-.17 0-.31-.12-.343-.28L13.65 4V.567l-.03-.013c-.047-.019-.105-.038-.173-.056l-.109-.026C13.05.408 12.67.366 12.253.354L12 .35H8c-.514 0-.993.045-1.338.122-.116.026-.212.054-.281.082L6.35.567V4c0 .17-.12.31-.28.343L6 4.35c-.17 0-.31-.12-.343-.28L5.65 4V.444c0-.545.894-.771 2.149-.792L8-.35h4z" transform="translate(-290 -42) translate(236 41) translate(55 2)"/>
                </g>
            </g>
        </g>
    </g>
</svg>
