<svg xmlns="http://www.w3.org/2000/svg" width="18" height="23" viewBox="0 0 18 23">
    <g fill="none" fill-rule="evenodd">
        <g fill="#000" fill-rule="nonzero">
            <g>
                <g>
                    <g>
                        <g>
                            <path d="M7.31 3.53v-.98H1.784c-1.116 0-2.024.9-2.034 2.016v12.35c0 1.123.91 2.034 2.034 2.034H7.31v-.98H1.784c-.582 0-1.054-.472-1.054-1.054V4.568c.007-.574.477-1.038 1.054-1.038H7.31z" transform="translate(-247 -358) translate(24 329) translate(22 26) translate(202 1) translate(0 3)"/>
                            <path d="M7.55-.25L6.57-.25 6.57 21.734 7.55 21.734zM10.15 2.55v.964h3.954c.582 0 1.054.472 1.054 1.054v12.348c0 .582-.472 1.054-1.054 1.054H10.15v.98h3.946c.54.002 1.06-.21 1.443-.593.383-.381.599-.9.599-1.441V4.584c0-1.123-.91-2.034-2.034-2.034H10.15z" transform="translate(-247 -358) translate(24 329) translate(22 26) translate(202 1) translate(0 3)"/>
                        </g>
                    </g>
                </g>
            </g>
        </g>
    </g>
</svg>
