<svg xmlns="http://www.w3.org/2000/svg" width="20" height="22" viewBox="0 0 20 22">
    <g fill="none" fill-rule="evenodd">
        <g fill="#000" fill-rule="nonzero">
            <g>
                <g>
                    <g>
                        <g>
                            <g>
                                <path d="M13.94-.5C12.122-.5 10.65.972 10.65 2.788c0 1.816 1.472 3.288 3.288 3.288 1.816 0 3.288-1.472 3.288-3.288C17.227.972 15.755-.5 13.939-.5zm0 1c1.263 0 2.287 1.024 2.287 2.288 0 1.263-1.024 2.288-2.288 2.288-1.263 0-2.288-1.025-2.288-2.288C11.651 1.524 12.676.5 13.94.5zM2.788 6.005C.972 6.005-.5 7.477-.5 9.293c0 1.816 1.472 3.288 3.288 3.288 1.816 0 3.288-1.472 3.288-3.288 0-1.816-1.472-3.288-3.288-3.288zm0 1c1.263 0 2.288 1.024 2.288 2.288 0 1.263-1.025 2.288-2.288 2.288C1.524 11.58.5 10.556.5 9.293c0-1.264 1.024-2.288 2.288-2.288zM13.94 12.51c-1.817 0-3.289 1.472-3.289 3.288 0 1.816 1.472 3.288 3.288 3.288 1.816 0 3.288-1.472 3.288-3.288 0-1.816-1.472-3.288-3.288-3.288zm0 1c1.263 0 2.287 1.024 2.287 2.288 0 1.263-1.024 2.288-2.288 2.288-1.263 0-2.288-1.025-2.288-2.288 0-1.264 1.025-2.288 2.288-2.288z" transform="translate(-303 -359) translate(24 329) translate(22 26) translate(202 1) translate(56 4) translate(.645 .645)"/>
                                <path d="M4.763 10.444c.123-.212.379-.3.602-.218l.081.038 6.347 3.699c.239.139.32.445.18.683-.123.212-.379.3-.601.219l-.082-.038-6.347-3.699c-.239-.139-.32-.445-.18-.684zM11.28 3.76c.239-.14.545-.06.684.179.124.212.074.478-.106.632l-.074.052L5.447 8.32c-.239.14-.545.06-.684-.18-.124-.211-.074-.477.106-.631l.074-.052 6.337-3.699z" transform="translate(-303 -359) translate(24 329) translate(22 26) translate(202 1) translate(56 4) translate(.645 .645)"/>
                            </g>
                        </g>
                    </g>
                </g>
            </g>
        </g>
    </g>
</svg>
