<svg xmlns="http://www.w3.org/2000/svg" width="21" height="15" viewBox="0 0 21 15">
    <g fill="none" fill-rule="evenodd">
        <g fill="#FFF" fill-rule="nonzero">
            <g>
                <g>
                    <g>
                        <g>
                            <g>
                                <path d="M6.25 1.35L6.25 13.95 5.55 13.95 5.55 1.35z" transform="translate(-61 -809) translate(0 788) translate(61 19) translate(0 1) translate(0 1)"/>
                                <path d="M5.653.753c.117-.118.296-.134.431-.05l.063.05L11.295 5.9l-.495.495-4.9-4.9-4.9 4.9L.505 5.9 5.653.753z" transform="translate(-61 -809) translate(0 788) translate(61 19) translate(0 1) translate(0 1)"/>
                            </g>
                            <g>
                                <path d="M6.25 1.35L6.25 13.95 5.55 13.95 5.55 1.35z" transform="translate(-61 -809) translate(0 788) translate(61 19) translate(0 1) translate(0 1) rotate(180 10.5 7.5)"/>
                                <path d="M5.653.753c.117-.118.296-.134.431-.05l.063.05L11.295 5.9l-.495.495-4.9-4.9-4.9 4.9L.505 5.9 5.653.753z" transform="translate(-61 -809) translate(0 788) translate(61 19) translate(0 1) translate(0 1) rotate(180 10.5 7.5)"/>
                            </g>
                        </g>
                    </g>
                </g>
            </g>
        </g>
    </g>
</svg>
