<?xml version="1.0" encoding="UTF-8" standalone="no"?>
<svg
   xmlns:dc="http://purl.org/dc/elements/1.1/"
   xmlns:cc="http://creativecommons.org/ns#"
   xmlns:rdf="http://www.w3.org/1999/02/22-rdf-syntax-ns#"
   xmlns:svg="http://www.w3.org/2000/svg"
   xmlns="http://www.w3.org/2000/svg"
   xmlns:sodipodi="http://sodipodi.sourceforge.net/DTD/sodipodi-0.dtd"
   xmlns:inkscape="http://www.inkscape.org/namespaces/inkscape"
   width="22"
   height="20"
   viewBox="0 0 22 20"
   version="1.1"
   id="svg116"
   sodipodi:docname="briefcase1.svg"
   inkscape:version="1.0.2 (e86c870879, 2021-01-15, custom)">
  <metadata
     id="metadata122">
    <rdf:RDF>
      <cc:Work
         rdf:about="">
        <dc:format>image/svg+xml</dc:format>
        <dc:type
           rdf:resource="http://purl.org/dc/dcmitype/StillImage" />
        <dc:title></dc:title>
      </cc:Work>
    </rdf:RDF>
  </metadata>
  <defs
     id="defs120" />
  <sodipodi:namedview
     pagecolor="#ffffff"
     bordercolor="#666666"
     borderopacity="1"
     objecttolerance="10"
     gridtolerance="10"
     guidetolerance="10"
     inkscape:pageopacity="0"
     inkscape:pageshadow="2"
     inkscape:window-width="2560"
     inkscape:window-height="1377"
     id="namedview118"
     showgrid="false"
     inkscape:zoom="47.363636"
     inkscape:cx="11"
     inkscape:cy="10"
     inkscape:window-x="1912"
     inkscape:window-y="-8"
     inkscape:window-maximized="1"
     inkscape:current-layer="svg116" />
  <g
     fill="none"
     fill-rule="evenodd"
     stroke-linecap="round"
     stroke-linejoin="round"
     id="g114">
    <g
       stroke="#FFF"
       stroke-width=".7"
       id="g112">
      <g
         id="g110">
        <g
           id="g108">
          <path
             style="color:#000000;font-style:normal;font-variant:normal;font-weight:normal;font-stretch:normal;font-size:medium;line-height:normal;font-family:sans-serif;font-variant-ligatures:normal;font-variant-position:normal;font-variant-caps:normal;font-variant-numeric:normal;font-variant-alternates:normal;font-variant-east-asian:normal;font-feature-settings:normal;font-variation-settings:normal;text-indent:0;text-align:start;text-decoration:none;text-decoration-line:none;text-decoration-style:solid;text-decoration-color:#000000;letter-spacing:normal;word-spacing:normal;text-transform:none;writing-mode:lr-tb;direction:ltr;text-orientation:mixed;dominant-baseline:auto;baseline-shift:baseline;text-anchor:start;white-space:normal;shape-padding:0;shape-margin:0;inline-size:0;clip-rule:nonzero;display:inline;overflow:visible;visibility:visible;isolation:auto;mix-blend-mode:normal;color-interpolation:sRGB;color-interpolation-filters:linearRGB;solid-color:#000000;solid-opacity:1;vector-effect:none;fill:#ffffff;fill-opacity:1;fill-rule:nonzero;stroke:none;stroke-linecap:butt;stroke-linejoin:miter;stroke-miterlimit:4;stroke-dasharray:none;stroke-dashoffset:0;stroke-opacity:1;color-rendering:auto;image-rendering:auto;shape-rendering:auto;text-rendering:auto;enable-background:accumulate;stop-color:#000000;stop-opacity:1;opacity:1"
             d="M 8 -0.34960938 C 7.4264894 -0.34960938 6.9084141 -0.29948015 6.5097656 -0.2109375 C 6.3104414 -0.16666618 6.1417562 -0.11655214 5.9941406 -0.0390625 C 5.9203328 -0.00031768142 5.8500376 0.044686648 5.7832031 0.1171875 C 5.7163686 0.18968835 5.6503906 0.30618676 5.6503906 0.44335938 L 5.6503906 3.6503906 L 0 3.6503906 A 0.35003499 0.35003499 0 0 0 -0.34960938 4 L -0.34960938 18 A 0.35003499 0.35003499 0 0 0 0 18.349609 L 20 18.349609 A 0.35003499 0.35003499 0 0 0 20.349609 18 L 20.349609 4 A 0.35003499 0.35003499 0 0 0 20 3.6503906 L 14.349609 3.6503906 L 14.349609 0.44335938 C 14.349609 0.30587509 14.283628 0.18951263 14.216797 0.1171875 C 14.149966 0.044862366 14.079601 -0.00038653164 14.005859 -0.0390625 C 13.858376 -0.11641444 13.689531 -0.16660338 13.490234 -0.2109375 C 13.09164 -0.29960574 12.573616 -0.34960938 12 -0.34960938 L 8 -0.34960938 z M 8 0.34960938 L 12 0.34960938 C 12.531384 0.34960938 13.012735 0.40032449 13.337891 0.47265625 C 13.486479 0.5057102 13.589509 0.54364961 13.650391 0.57226562 L 13.650391 3.6503906 L 6.3496094 3.6503906 L 6.3496094 0.57226562 C 6.4103801 0.54368715 6.5135455 0.50565335 6.6621094 0.47265625 C 6.9872109 0.4004489 7.4685106 0.34960938 8 0.34960938 z M 0.34960938 4.3496094 L 5.9980469 4.3496094 L 6 4.3496094 L 13.998047 4.3496094 L 14 4.3496094 L 19.650391 4.3496094 L 19.650391 17.650391 L 0.34960938 17.650391 L 0.34960938 4.3496094 z "
             id="path106"
             transform="translate(-290 -42) translate(236 41) translate(55 2)" />
        </g>
      </g>
    </g>
  </g>
</svg>
