<svg xmlns="http://www.w3.org/2000/svg" width="31" height="23" viewBox="0 0 31 23">
    <g fill="none" fill-rule="evenodd">
        <g fill="#000" fill-rule="nonzero">
            <g>
                <g>
                    <g>
                        <g>
                            <path d="M30.933 16.937l-1.082-8.714c-.074-.493-.128-1.005-.18-1.5l-.059-.545C29.222 2.656 26.37 0 22.978 0c-1.53 0-3.024.556-4.208 1.565-.897.764-1.988 1.184-3.073 1.184h-.424c-1.085 0-2.175-.42-3.07-1.182C11.017.557 9.521 0 7.99 0 4.6 0 1.75 2.656 1.36 6.179l-.057.53c-.052.499-.106 1.015-.185 1.53l-1.08 8.7c-.173 1.398.241 2.805 1.137 3.859.881 1.036 2.147 1.63 3.472 1.63 1.628 0 3.158-.91 3.992-2.373l2.62-4.6c.333-.586.942-.949 1.59-.949h5.273c.648 0 1.258.364 1.59.949l2.617 4.597c.833 1.466 2.364 2.376 3.994 2.376 1.326 0 2.592-.595 3.473-1.631.896-1.054 1.31-2.461 1.137-3.86zm-2.067 3.013c-.646.76-1.572 1.196-2.543 1.196-1.193 0-2.314-.668-2.926-1.744l-2.616-4.598c-.555-.974-1.573-1.58-2.658-1.58h-5.274c-1.084 0-2.103.605-2.657 1.58l-2.62 4.6c-.612 1.075-1.733 1.742-2.924 1.742-.97 0-1.896-.435-2.542-1.195-.66-.777-.966-1.815-.838-2.848L2.346 8.42c.08-.527.136-1.059.19-1.573l.056-.523c.318-2.875 2.64-5.043 5.4-5.043 1.243 0 2.46.453 3.424 1.275 1.117.951 2.486 1.475 3.858 1.475h.424c1.371 0 2.742-.524 3.86-1.477.963-.82 2.178-1.273 3.421-1.273 2.762 0 5.084 2.168 5.403 5.043l.058.538c.053.51.109 1.037.186 1.542l1.08 8.696c.127 1.033-.179 2.072-.84 2.849z" transform="translate(-536 -1379) translate(149 1135) translate(40 179) translate(330 44) translate(17 21)"/>
                            <path d="M22.962 3.204c-1.472 0-2.67 1.198-2.67 2.67s1.198 2.67 2.67 2.67 2.67-1.198 2.67-2.67-1.198-2.67-2.67-2.67zm0 3.992c-.722 0-1.309-.593-1.309-1.322 0-.729.587-1.322 1.309-1.322s1.309.593 1.309 1.322c0 .729-.587 1.322-1.309 1.322zM8.01 3.204c-1.472 0-2.67 1.198-2.67 2.67s1.198 2.67 2.67 2.67 2.67-1.198 2.67-2.67-1.198-2.67-2.67-2.67zm0 3.992c-.722 0-1.309-.593-1.309-1.322 0-.729.587-1.322 1.309-1.322s1.309.593 1.309 1.322c0 .729-.587 1.322-1.309 1.322z" transform="translate(-536 -1379) translate(149 1135) translate(40 179) translate(330 44) translate(17 21)"/>
                        </g>
                    </g>
                </g>
            </g>
        </g>
    </g>
</svg>
