<svg xmlns="http://www.w3.org/2000/svg" width="20" height="24" viewBox="0 0 20 24">
    <g fill="none" fill-rule="evenodd">
        <g fill="#FFF" fill-rule="nonzero">
            <g>
                <path d="M9-.35C3.836-.35-.35 3.836-.35 9c0 3.17 1.728 6.338 4.596 9.366.996 1.052 2.063 2.011 3.13 2.86l.275.217.517.393.347.253.29.202c.118.079.272.079.39 0l.397-.279.24-.176.517-.393.275-.216c1.067-.85 2.134-1.81 3.13-2.861C16.622 15.338 18.35 12.17 18.35 9c0-5.164-4.186-9.35-9.35-9.35zm0 .7c4.777 0 8.65 3.873 8.65 8.65 0 2.954-1.647 5.974-4.404 8.884-.972 1.027-2.015 1.965-3.058 2.795-.273.218-.532.417-.772.595l-.416.3-.182-.13c-.303-.218-.642-.474-1.006-.765-1.043-.83-2.086-1.768-3.058-2.795C1.997 14.974.35 11.954.35 9 .35 4.223 4.223.35 9 .35z" transform="translate(-235 -40) translate(236 41)"/>
                <path d="M9 5.65c-1.85 0-3.35 1.5-3.35 3.35s1.5 3.35 3.35 3.35 3.35-1.5 3.35-3.35S10.85 5.65 9 5.65zm0 .7c1.464 0 2.65 1.186 2.65 2.65S10.464 11.65 9 11.65 6.35 10.464 6.35 9 7.536 6.35 9 6.35z" transform="translate(-235 -40) translate(236 41)"/>
            </g>
        </g>
    </g>
</svg>
