<svg xmlns="http://www.w3.org/2000/svg" width="23" height="39" viewBox="0 0 23 39">
    <defs>
        <filter id="z4apk0hjna">
            <feColorMatrix in="SourceGraphic" values="0 0 0 0 1.000000 0 0 0 0 1.000000 0 0 0 0 1.000000 0 0 0 1.000000 0"/>
        </filter>
        <filter id="f72giv11yb">
            <feColorMatrix in="SourceGraphic" values="0 0 0 0 0.396078 0 0 0 0 0.682353 0 0 0 0 0.725490 0 0 0 1.000000 0"/>
        </filter>
    </defs>
    <g fill="none" fill-rule="evenodd">
        <g>
            <g>
                <g>
                    <g>
                        <g>
                            <g>
                                <g filter="url(#z4apk0hjna)" transform="translate(-167 -1534) translate(0 1136) translate(24 50) translate(0 49) translate(0 167) translate(42 132) translate(101)">
                                    <g>
                                        <path fill="#000" fill-rule="nonzero" d="M11.232.468c-.262 0-.468.206-.468.468v4.212H6.552c-.14 0-.262.056-.356.16L.58 11.858c-.018.019-.018.038-.028.056-.018.028-.037.056-.047.094-.009.028-.018.065-.018.093 0 .02-.01.038-.01.066v26.208c0 .262.206.468.468.468h20.592c.262 0 .468-.206.468-.468V12.168c0-.019-.009-.047-.009-.066 0-.037-.01-.065-.019-.093-.01-.028-.028-.056-.047-.094l-.028-.056-5.616-6.552c-.112-.103-.234-.159-.374-.159H11.7V.936c0-.262-.206-.468-.468-.468zm9.828 37.44H1.404V35.1H21.06v2.808zM15.697 6.084l5.363 6.252v21.828H1.404V12.336l5.363-6.252h8.93z"/>
                                        <g filter="url(#f72giv11yb)">
                                            <g>
                                                <path stroke="#65AEB9" stroke-width="1.17" d="M0 .016h3.524c1.83 0 3.313 1.482 3.313 3.312 0 1.83-1.483 3.31-3.313 3.31H.988v.327l5.063 6.63M9.324 3.517L0 3.517M0 .091L9.324.091" transform="translate(7.02 16.38)"/>
                                            </g>
                                        </g>
                                    </g>
                                </g>
                            </g>
                        </g>
                    </g>
                </g>
            </g>
        </g>
    </g>
</svg>
