<svg xmlns="http://www.w3.org/2000/svg" width="28" height="36" viewBox="0 0 28 36">
    <defs>
        <filter id="q1ildnbkpa">
            <feColorMatrix in="SourceGraphic" values="0 0 0 0 1.000000 0 0 0 0 1.000000 0 0 0 0 1.000000 0 0 0 1.000000 0"/>
        </filter>
    </defs>
    <g fill="none" fill-rule="evenodd">
        <g>
            <g>
                <g>
                    <g>
                        <g>
                            <g>
                                <g filter="url(#q1ildnbkpa)" transform="translate(-66 -1535) translate(0 1136) translate(24 50) translate(0 49) translate(0 167) translate(42 132) translate(0 1)">
                                    <g>
                                        <path fill="#65AEB9" d="M8.443.145c4.615 0 8.21 3.378 8.09 7.44-.083 2.835-1.544 5.921-3.21 8.75-1.667 2.827-3.557 5.403-4.53 7.089-.073.124-.206.201-.35.201s-.277-.077-.349-.201c-.953-1.652-2.817-4.26-4.469-7.105C1.975 13.473.517 10.387.406 7.642.243 3.578 3.826.145 8.443.145zm0 .807c-4.221 0-7.375 3.085-7.231 6.658.1 2.478 1.485 5.502 3.11 8.304 1.453 2.503 3.08 4.826 4.122 6.523 1.063-1.723 2.716-4.022 4.184-6.512 1.639-2.782 3.024-5.793 3.099-8.364.106-3.574-3.06-6.61-7.284-6.61z" transform="translate(0 .257)"/>
                                        <path fill="#000" d="M25.177 9.723c1.454 0 2.646 1.19 2.646 2.646v19.794c0 1.459-1.192 2.66-2.646 2.66H5.407c-1.456 0-2.658-1.201-2.658-2.66V19.652c-.003-.213.19-.41.403-.41.213 0 .407.197.404.41v12.511c0 1.02.834 1.853 1.852 1.853h6.212l10.86-10.887-6.803-6.804c-.232-.224-.032-.7.29-.693.103.004.205.05.277.126 3.594 3.603 7.181 7.195 10.773 10.786V12.369c0-1.015-.827-1.84-1.84-1.84h-6.665c-.213.003-.41-.19-.41-.403 0-.213.197-.406.41-.403h6.665zm-2.13 13.986L12.755 34.016h12.423c1.013 0 1.84-.833 1.84-1.853v-4.485l-3.97-3.97z" transform="translate(0 .257)"/>
                                    </g>
                                </g>
                            </g>
                        </g>
                    </g>
                </g>
            </g>
        </g>
    </g>
</svg>
