<svg xmlns="http://www.w3.org/2000/svg" width="26" height="19" viewBox="0 0 26 19">
    <g fill="none" fill-rule="evenodd">
        <g fill="#000" fill-rule="nonzero">
            <g>
                <g>
                    <g>
                        <g>
                            <g>
                                <path d="M25.778 14.114l-.902-7.262c-.062-.41-.107-.837-.15-1.25l-.05-.454C24.352 2.213 21.976 0 19.15 0c-1.275 0-2.521.463-3.508 1.304-.747.637-1.656.987-2.56.987h-.353c-.905 0-1.813-.35-2.559-.985C9.181.464 7.934 0 6.66 0c-2.825 0-5.2 2.214-5.525 5.149l-.048.442c-.043.416-.089.846-.154 1.275l-.9 7.25c-.144 1.165.2 2.337.947 3.215.734.864 1.789 1.359 2.893 1.359 1.358 0 2.632-.758 3.327-1.978l2.183-3.833c.278-.488.785-.79 1.325-.79h4.395c.54 0 1.048.302 1.325.79l2.18 3.831c.695 1.221 1.97 1.98 3.329 1.98 1.105 0 2.16-.495 2.894-1.36.747-.878 1.092-2.05.948-3.216zm-1.723 2.511c-.538.634-1.31.997-2.119.997-.994 0-1.929-.557-2.439-1.454l-2.18-3.831c-.462-.812-1.31-1.317-2.215-1.317h-4.395c-.903 0-1.752.504-2.214 1.316L6.31 16.17c-.51.895-1.444 1.452-2.437 1.452-.808 0-1.58-.363-2.118-.996-.55-.648-.805-1.513-.698-2.374l.898-7.235c.067-.439.113-.882.158-1.31l.047-.436c.265-2.396 2.2-4.202 4.5-4.202 1.036 0 2.05.377 2.854 1.062.93.792 2.071 1.229 3.214 1.229h.354c1.142 0 2.285-.437 3.216-1.23.803-.685 1.815-1.061 2.851-1.061 2.302 0 4.237 1.806 4.502 4.202l.049.448c.045.425.09.864.155 1.285l.9 7.247c.106.86-.15 1.726-.7 2.374z" transform="translate(-221 -1084) translate(24 898) translate(26 138) translate(0 29) translate(155) translate(16 19)"/>
                                <path d="M19.135 2.67c-1.227 0-2.225.998-2.225 2.225s.998 2.225 2.225 2.225 2.225-.998 2.225-2.225-.998-2.225-2.225-2.225zm0 3.327c-.601 0-1.09-.495-1.09-1.102 0-.607.489-1.102 1.09-1.102.601 0 1.09.495 1.09 1.102 0 .607-.489 1.102-1.09 1.102zM6.675 2.67c-1.227 0-2.225.998-2.225 2.225S5.448 7.12 6.675 7.12 8.9 6.122 8.9 4.895 7.902 2.67 6.675 2.67zm0 3.327c-.602 0-1.09-.495-1.09-1.102 0-.607.489-1.102 1.09-1.102.601 0 1.09.495 1.09 1.102 0 .607-.488 1.102-1.09 1.102z" transform="translate(-221 -1084) translate(24 898) translate(26 138) translate(0 29) translate(155) translate(16 19)"/>
                            </g>
                        </g>
                    </g>
                </g>
            </g>
        </g>
    </g>
</svg>
