<svg xmlns="http://www.w3.org/2000/svg" width="22" height="22" viewBox="0 0 22 22">
    <g fill="none" fill-rule="evenodd">
        <g fill="#FFF" fill-rule="nonzero">
            <g>
                <g>
                    <path d="M18 9.75c.118 0 .217.082.243.193l.007.057v10c0 .118-.082.217-.193.243L18 20.25H2c-.118 0-.217-.082-.243-.193L1.75 20V10c0-.138.112-.25.25-.25.118 0 .217.082.243.193L2.25 10v9.75h15.5V10c0-.118.082-.217.193-.243L18 9.75z" transform="translate(-345 -41) translate(236 41) translate(110 1)"/>
                    <g>
                        <path d="M5.223.183c.098-.097.256-.097.354 0 .081.082.095.205.04.3l-.04.054-5.04 5.04c-.098.097-.256.097-.354 0-.081-.082-.095-.205-.04-.3l.04-.054 5.04-5.04zM.9-.25C.265-.25-.25.265-.25.9c0 .635.515 1.15 1.15 1.15.635 0 1.15-.515 1.15-1.15C2.05.265 1.535-.25.9-.25zm0 .5c.359 0 .65.291.65.65 0 .359-.291.65-.65.65-.359 0-.65-.291-.65-.65C.25.541.541.25.9.25zM4.86 3.71c-.635 0-1.15.515-1.15 1.15 0 .635.515 1.15 1.15 1.15.635 0 1.15-.515 1.15-1.15 0-.635-.515-1.15-1.15-1.15zm0 .5c.359 0 .65.291.65.65 0 .359-.291.65-.65.65-.359 0-.65-.291-.65-.65 0-.359.291-.65.65-.65z" transform="translate(-345 -41) translate(236 41) translate(110 1) translate(7 12)"/>
                    </g>
                    <path d="M20 4.75H0c-.138 0-.25.112-.25.25v5c0 .138.112.25.25.25h20c.138 0 .25-.112.25-.25V5c0-.138-.112-.25-.25-.25zm-.25.5v4.5H.25v-4.5h19.5z" transform="translate(-345 -41) translate(236 41) translate(110 1)"/>
                    <path d="M5.5-.25C3.981-.25 2.75.981 2.75 2.5S3.981 5.25 5.5 5.25H10c.158 0 .276-.144.245-.299l-.046-.202-.072-.273-.1-.333c-.19-.6-.436-1.201-.745-1.763C8.382.745 7.139-.25 5.5-.25zm0 .5c1.424 0 2.524.88 3.343 2.37.293.532.527 1.103.708 1.674l.05.165.083.291H5.5c-1.243 0-2.25-1.007-2.25-2.25S4.257.25 5.5.25z" transform="translate(-345 -41) translate(236 41) translate(110 1)"/>
                    <path d="M14.5-.25c-1.639 0-2.883.995-3.782 2.63-.309.562-.555 1.163-.745 1.763l-.1.333-.072.273-.046.202c-.031.155.087.299.245.299h4.5c1.519 0 2.75-1.231 2.75-2.75S16.019-.25 14.5-.25zm0 .5c1.243 0 2.25 1.007 2.25 2.25l-.005.154c-.08 1.17-1.054 2.096-2.245 2.096h-4.185l.084-.291c.015-.053.032-.108.05-.165.181-.571.415-1.142.708-1.674.82-1.49 1.92-2.37 3.343-2.37z" transform="translate(-345 -41) translate(236 41) translate(110 1)"/>
                </g>
            </g>
        </g>
    </g>
</svg>
