<svg xmlns="http://www.w3.org/2000/svg" width="20" height="20" viewBox="0 0 20 20">
    <g fill="none" fill-rule="evenodd">
        <g fill="#A3A3A3" fill-rule="nonzero">
            <g>
                <g>
                    <path d="M9 .5C4.306.5.5 4.306.5 9s3.806 8.5 8.5 8.5 8.5-3.806 8.5-8.5S13.694.5 9 .5zm0 1c4.142 0 7.5 3.358 7.5 7.5 0 4.142-3.358 7.5-7.5 7.5-4.142 0-7.5-3.358-7.5-7.5 0-4.142 3.358-7.5 7.5-7.5z" transform="translate(-34 -207) translate(25 198) translate(9 9)"/>
                    <path d="M13.943 14.65L14.65 13.943 19.707 19 19 19.707z" transform="translate(-34 -207) translate(25 198) translate(9 9)"/>
                </g>
            </g>
        </g>
    </g>
</svg>
