<?xml version="1.0" encoding="UTF-8"?>
<svg width="20px" height="22px" viewBox="0 0 20 22" version="1.1" xmlns="http://www.w3.org/2000/svg" xmlns:xlink="http://www.w3.org/1999/xlink">
    <title>Group 50</title>
    <g id="Page-1" stroke="none" stroke-width="1" fill="none" fill-rule="evenodd" stroke-linecap="round" stroke-linejoin="round">
        <g id="05.1_category-landing" transform="translate(-303.000000, -359.000000)" stroke="#000000">
            <g id="Group-10" transform="translate(24.000000, 329.000000)">
                <g id="Group-53" transform="translate(22.000000, 26.000000)">
                    <g id="Group-46" transform="translate(202.000000, 1.000000)">
                        <g id="Group-50" transform="translate(56.000000, 4.000000)">
                            <g id="share-2" transform="translate(0.645333, 0.645333)">
                                <path d="M13.9392,13.00992 C15.4788815,13.00992 16.72704,14.2580785 16.72704,15.79776 C16.72704,17.3374415 15.4788815,18.5856 13.9392,18.5856 C12.3995185,18.5856 11.15136,17.3374415 11.15136,15.79776 C11.15136,14.2580785 12.3995185,13.00992 13.9392,13.00992 Z M2.78784,6.50496 C4.32752152,6.50496 5.57568,7.75311848 5.57568,9.2928 C5.57568,10.8324815 4.32752152,12.08064 2.78784,12.08064 C1.24815848,12.08064 -8.12683254e-14,10.8324815 -8.12683254e-14,9.2928 C-8.12683254e-14,7.75311848 1.24815848,6.50496 2.78784,6.50496 Z M13.9392,3.24185123e-14 C15.4788815,3.24185123e-14 16.72704,1.24815848 16.72704,2.78784 C16.72704,4.32752152 15.4788815,5.57568 13.9392,5.57568 C12.3995185,5.57568 11.15136,4.32752152 11.15136,2.78784 C11.15136,1.24815848 12.3995185,3.24185123e-14 13.9392,3.24185123e-14 Z M5.1946752,10.6960128 L11.5416576,14.3945472 M11.5323648,4.1910528 L5.1946752,7.8895872" id="Combined-Shape"></path>
                            </g>
                        </g>
                    </g>
                </g>
            </g>
        </g>
    </g>
</svg>