<?xml version="1.0" encoding="UTF-8"?>
<svg width="32px" height="32px" viewBox="0 0 32 32" version="1.1" xmlns="http://www.w3.org/2000/svg" xmlns:xlink="http://www.w3.org/1999/xlink">
    <title>3485502 copy</title>
    <g id="Page-1" stroke="none" stroke-width="1" fill="none" fill-rule="evenodd">
        <g id="00_Homepage" transform="translate(-1051.000000, -26.000000)" fill="#FFFFFF" fill-rule="nonzero" stroke="#000000">
            <g id="Group-83" transform="translate(1034.000000, 27.000000)">
                <g id="3485502-copy" transform="translate(18.000000, 0.000000)">
                    <path d="M29.0902734,28.2421875 L28.211543,28.2421875 L28.211543,9.32496094 C29.2826953,8.68189453 30,7.51628906 30,6.18785156 C30,5.57601563 29.8444922,4.97003906 29.5503516,4.43554688 L27.5687109,0.485976563 C27.4198828,0.188144531 27.1156055,0 26.7826758,0 L3.3403125,0 C3.01535156,0 2.71693359,0.179355469 2.56441406,0.466289063 L0.400429687,4.54751953 C0.144609375,5.05371094 0.00955078125,5.61884766 0.00955078125,6.18785156 C0.00955078125,7.49935547 0.709042969,8.65154297 1.75751953,9.29958984 L1.75751953,28.2421875 L0.878789062,28.2421875 C0.393457031,28.2421875 -1.66533454e-15,28.6357031 -1.66533454e-15,29.1210938 C-1.66533454e-15,29.6064844 0.393457031,30 0.878789062,30 L29.090332,30 C29.5756641,30 29.9690625,29.6064844 29.9690625,29.1210938 C29.9690625,28.6357031 29.5756055,28.2421875 29.0902734,28.2421875 Z M3.86835937,1.7578125 L26.2394531,1.7578125 L28.0603125,5.38042969 C28.1810742,5.63285156 28.2424805,5.90384766 28.2424805,6.18785156 C28.2424805,7.24001953 27.3701953,8.09601562 26.2979297,8.09601562 C25.2256641,8.09601562 24.3533789,7.24001953 24.3533789,6.18785156 C24.3533789,5.70246094 23.9599219,5.30894531 23.4746484,5.30894531 C22.9893164,5.30894531 22.595918,5.70246094 22.595918,6.18785156 C22.595918,7.24001953 21.7236328,8.09601562 20.6514258,8.09601562 C19.5791602,8.09601562 18.706875,7.24001953 18.706875,6.18785156 C18.706875,5.70246094 18.313418,5.30894531 17.8281445,5.30894531 C17.3428125,5.30894531 16.9494141,5.70246094 16.9494141,6.18785156 C16.9494141,7.24001953 16.0771289,8.09601562 15.0048633,8.09601562 C13.9326562,8.09601562 13.0603125,7.24001953 13.0603125,6.18785156 C13.0603125,5.70246094 12.6668555,5.30894531 12.181582,5.30894531 C11.69625,5.30894531 11.3028516,5.70246094 11.3028516,6.18785156 C11.3028516,7.24001953 10.4305078,8.09601562 9.35830078,8.09601562 C8.28609375,8.09601562 7.41380859,7.24001953 7.41380859,6.18785156 C7.41380859,5.70246094 7.02035156,5.30894531 6.53507812,5.30894531 C6.04980469,5.30894531 5.65634766,5.70246094 5.65634766,6.18785156 C5.65634766,7.24001953 4.78400391,8.09601562 3.71179687,8.09601562 C2.63958984,8.09601562 1.76724609,7.24001953 1.76724609,6.18785156 C1.76724609,5.87396484 1.84207031,5.57542969 1.98966797,5.30044922 L3.86835937,1.7578125 Z M3.51503906,9.84861328 C3.58013672,9.85201172 3.64564453,9.85388672 3.7115625,9.85388672 C4.84171875,9.85388672 5.85527344,9.34974609 6.53484375,8.55667969 C7.21447266,9.34980469 8.22796875,9.85388672 9.358125,9.85388672 C10.4882812,9.85388672 11.5018359,9.34974609 12.1814062,8.55667969 C12.8610352,9.34974609 13.8745312,9.85388672 15.0046875,9.85388672 C16.1349023,9.85388672 17.1483984,9.34974609 17.8279688,8.55667969 C18.5075977,9.34974609 19.5210938,9.85388672 20.65125,9.85388672 C21.7814062,9.85388672 22.7949023,9.34974609 23.4744727,8.55667969 C24.1541016,9.34980469 25.1675977,9.85388672 26.2977539,9.85388672 C26.3500781,9.85388672 26.4019922,9.85212891 26.4538477,9.84996094 L26.4538477,28.2421875 L3.51503906,28.2421875 L3.51503906,9.84861328 Z" id="Shape" stroke-width="0.9"></path>
                    <path d="M19.8749143,22.2508848 L9.87491427,22.2508848 C9.57741427,22.2508848 9.32116427,22.0408848 9.26241427,21.7483848 L8.01241427,15.4983848 C7.97491427,15.3146348 8.02366427,15.1246348 8.14116427,14.9796348 C8.25991427,14.8346348 8.43741427,14.7508848 8.62491427,14.7508848 L20.9486643,14.7508848 L21.7686643,11.4746348 C21.8511643,11.1396348 22.1911643,10.9333848 22.5261643,11.0196348 C22.8611643,11.1033848 23.0649143,11.4421348 22.9811643,11.7771348 L20.4811643,21.7771348 C20.4111643,22.0558848 20.1611643,22.2508848 19.8749143,22.2508848 L19.8749143,22.2508848 Z M10.3874143,21.0008848 L19.3874143,21.0008848 L20.6374143,16.0008848 L9.38741427,16.0008848 L10.3874143,21.0008848 Z" id="Shape" stroke-width="0.4"></path>
                    <path d="M12.9999143,26.0008848 C12.3111643,26.0008848 11.7499143,25.4408848 11.7499143,24.7508848 C11.7499143,24.0608848 12.3111643,23.5008848 12.9999143,23.5008848 C13.6886643,23.5008848 14.2499143,24.0608848 14.2499143,24.7508848 C14.2499143,25.4408848 13.6886643,26.0008848 12.9999143,26.0008848 Z" id="Path" stroke-width="0.4"></path>
                    <path d="M17.9999143,26.0008848 C17.3111643,26.0008848 16.7499143,25.4408848 16.7499143,24.7508848 C16.7499143,24.0608848 17.3111643,23.5008848 17.9999143,23.5008848 C18.6886643,23.5008848 19.2499143,24.0608848 19.2499143,24.7508848 C19.2499143,25.4408848 18.6886643,26.0008848 17.9999143,26.0008848 Z" id="Path" stroke-width="0.4"></path>
                </g>
            </g>
        </g>
    </g>
</svg>