<svg xmlns="http://www.w3.org/2000/svg" width="20" height="20" viewBox="0 0 20 20">
    <g fill="none" fill-rule="evenodd">
        <g fill="#FFF" fill-rule="nonzero">
            <g>
                <path d="M17.646-.354c.196-.195.512-.195.708 0 .173.174.192.443.057.638l-.057.07-18 18c-.196.195-.512.195-.708 0-.173-.174-.192-.443-.057-.638l.057-.07 18-18z" transform="translate(-347 -41) translate(348 42)"/>
                <path d="M-.354-.354C-.18-.527.09-.546.284-.41l.07.057 18 18c.195.196.195.512 0 .708-.174.173-.443.192-.638.057l-.07-.057-18-18c-.195-.196-.195-.512 0-.708z" transform="translate(-347 -41) translate(348 42)"/>
            </g>
        </g>
    </g>
</svg>
